<svg width="55" height="53" viewBox="0 0 55 53" fill="none" xmlns="http://www.w3.org/2000/svg">
<path fill-rule="evenodd" clip-rule="evenodd" d="M32.4702 9.00636C32.6606 8.7783 32.6297 8.43938 32.4013 8.24934C32.1727 8.05932 31.833 8.09012 31.6425 8.31817L30.7448 9.39316C30.5544 9.6212 30.5853 9.96012 30.8139 10.1502C31.0423 10.3402 31.382 10.3094 31.5725 10.0813L32.4702 9.00636ZM36.639 14.142C36.8952 13.9913 36.9807 13.6618 36.8297 13.406C36.6787 13.1503 36.3485 13.0651 36.0921 13.2157L29.5386 17.0677C29.2823 17.2184 29.1969 17.5479 29.3479 17.8037C29.4989 18.0594 29.8291 18.1447 30.0855 17.994L36.639 14.142ZM40.0851 20.5611C40.374 20.4903 40.5507 20.1992 40.4796 19.9109C40.4087 19.6226 40.1169 19.4463 39.828 19.5173L28.8755 22.2047C28.5866 22.2755 28.4099 22.5666 28.481 22.8549C28.5519 23.1432 28.8437 23.3195 29.1326 23.2485L40.0851 20.5611ZM23.8869 12.783C24.1844 12.783 24.4255 13.0237 24.4255 13.3205V26.0411C24.4255 26.338 24.1844 26.5786 23.8869 26.5786C23.5893 26.5786 23.3482 26.338 23.3482 26.0411V13.3205C23.3482 13.0237 23.5893 12.783 23.8869 12.783ZM16.3934 14.3223C16.6818 14.2496 16.9747 14.424 17.0476 14.7118L19.2022 23.222C19.2751 23.5099 19.1002 23.8021 18.8119 23.8749C18.5235 23.9474 18.2305 23.7731 18.1578 23.4854L16.0031 14.9751C15.9302 14.6873 16.105 14.395 16.3934 14.3223ZM10.6857 17.7649C10.5177 17.5199 10.1825 17.4571 9.93693 17.6248C9.69141 17.7924 9.62855 18.1269 9.79654 18.3719L10.9636 20.0739C11.1316 20.3188 11.4668 20.3817 11.7123 20.214C11.9578 20.0463 12.0207 19.7118 11.8527 19.4669L10.6857 17.7649ZM12.0873 26.7094C12.2132 26.4405 12.5337 26.3244 12.8033 26.45L23.7558 31.5562C24.0253 31.6818 24.1418 32.0017 24.0158 32.2707C23.8899 32.5396 23.5692 32.6557 23.2997 32.5301L12.3473 27.4239C12.0777 27.2983 11.9613 26.9783 12.0873 26.7094ZM30.163 32.352C30.3887 32.5453 30.4146 32.8847 30.2207 33.1099L22.5898 41.9785C22.3961 42.2037 22.056 42.2295 21.8303 42.0362C21.6046 41.8429 21.5787 41.5035 21.7725 41.2783L29.4033 32.4097C29.5971 32.1845 29.9372 32.1587 30.163 32.352ZM10.8732 34.1306C10.9078 33.8358 11.1753 33.6248 11.4708 33.6592L19.9096 34.6446C20.2052 34.6792 20.4167 34.9461 20.382 35.241C20.3474 35.5358 20.0799 35.7468 19.7845 35.7124L11.3456 34.727C11.0501 34.6924 10.8386 34.4255 10.8732 34.1306ZM14.1875 40.7593C14.2223 41.0542 14.011 41.3213 13.7155 41.3559L12.1893 41.535C11.8939 41.5698 11.6262 41.3589 11.5914 41.0642C11.5567 40.7693 11.768 40.5022 12.0634 40.4676L13.5896 40.2884C13.8851 40.2537 14.1528 40.4645 14.1875 40.7593ZM32.9809 38.387C33.1206 38.1248 33.0207 37.7995 32.7581 37.6601C32.4954 37.5207 32.1693 37.6203 32.0296 37.8824L28.2591 44.9594C28.1194 45.2215 28.2192 45.5469 28.4819 45.6863C28.7446 45.8257 29.0706 45.7261 29.2103 45.4639L32.9809 38.387ZM45.1405 25.8717C45.2838 25.6115 45.6113 25.5167 45.872 25.6597L47.6675 26.6451C47.9282 26.7883 48.0232 27.1151 47.8799 27.3752C47.7365 27.6353 47.409 27.7301 47.1484 27.5871L45.3529 26.6017C45.0922 26.4586 44.9971 26.1318 45.1405 25.8717ZM38.666 26.7485C38.8694 26.5319 39.2102 26.5209 39.4273 26.7239L45.1729 32.0989C45.3899 32.302 45.4009 32.6421 45.1975 32.8587C44.994 33.0753 44.6531 33.0862 44.436 32.8832L38.6904 27.5083C38.4735 27.3051 38.4624 26.9651 38.666 26.7485ZM33.1206 27.3752C33.3737 27.2195 33.7055 27.2982 33.8616 27.5508L40.056 37.584C40.2122 37.8368 40.1332 38.1678 39.8801 38.3235C39.6267 38.4792 39.2949 38.4006 39.1389 38.148L32.9444 28.1148C32.7884 27.862 32.8672 27.5309 33.1206 27.3752ZM36.04 44.4198C36.3297 44.4877 36.5092 44.777 36.4412 45.066L36.0821 46.5889C36.0138 46.8779 35.7239 47.0571 35.4342 46.989C35.1446 46.9211 34.9653 46.6317 35.0333 46.3427L35.3924 44.8198C35.4605 44.5308 35.7506 44.3517 36.04 44.4198Z" fill="white"/>
<path fill-rule="evenodd" clip-rule="evenodd" d="M26.0851 0L26.5304 0.198464C35.2519 4.08504 40.3867 10.2473 43.2198 15.8963L53.6191 17.9891L54.0623 18.0784L54.0511 18.5293C53.8075 28.3489 48.563 35.7846 43.3792 40.5014L44.1744 50.9938L44.208 51.4356L43.7798 51.5526C36.5552 53.5288 29.9367 52.1831 24.6159 49.7144C23.6461 49.2643 22.7186 48.7768 21.8374 48.2646L12.6253 52.5955L12.1753 52.8071L11.9282 52.3762C6.95587 43.7045 6.58833 35.1804 7.76253 28.7044L0.210947 20.303L0.0253906 20.1635C2.84286 16.4307 10.2309 10.2901 20.9604 8.94895L25.8431 0.422566L26.0851 0ZM1.46541 20.0886L8.0276 27.3893C8.79385 23.9384 9.97423 21.1666 11.0363 19.4036L11.2994 18.967L11.7504 19.2058L27.3533 27.4637L30.6168 10.1794C15.8555 7.90356 5.42165 15.4307 1.46541 20.0886ZM46.2402 26.2821C46.1242 24.0372 45.4275 20.7241 43.7972 17.1091L52.9593 18.953C52.4 32.4941 41.9231 41.3084 36.2493 44.3044L28.6157 28.7354L45.7615 26.8439L46.2664 26.7882L46.2402 26.2821ZM45.1293 25.8322L28.4094 27.6765L31.7778 9.83653L31.8794 9.29864L31.3386 9.20711C28.118 8.66191 25.0919 8.56969 22.2808 8.81008L26.5349 1.38125C40.3333 7.74782 44.6271 20.0155 45.1293 25.8322ZM42.3662 41.3904C40.1092 43.2998 37.9272 44.6838 36.2453 45.5141L35.7604 45.7534L35.5226 45.2684L27.6314 29.1738L14.3147 40.7904C16.4137 43.2224 20.1871 46.4739 25.0702 48.7396C30.1107 51.0784 36.3091 52.3564 43.0664 50.6292L42.3662 41.3904ZM11.7042 20.3982L26.8597 28.4192L13.2083 40.3276L12.8162 40.6698L13.1456 41.0723C14.7076 42.9811 17.3264 45.4446 20.7331 47.5952L12.6192 51.41C5.31255 38.2604 8.82401 25.5554 11.7042 20.3982Z" fill="white"/>
</svg>
