<svg width="32" height="32" viewBox="0 0 32 32" fill="none" xmlns="http://www.w3.org/2000/svg">
<path d="M17.0299 27H13.362C12.7493 27 12.251 26.5213 12.251 25.9328V17.9863H10.111C9.49837 17.9863 9 17.5074 9 16.9191V13.514C9 12.9256 9.49837 12.4469 10.111 12.4469H12.251V10.7417C12.251 9.05098 12.8037 7.61253 13.8492 6.58212C14.8994 5.54701 16.3671 5 18.0936 5L20.8909 5.00436C21.5025 5.00537 22 5.48407 22 6.07153V9.23309C22 9.82156 21.5018 10.3003 20.8893 10.3003L19.0059 10.3009C18.4315 10.3009 18.2853 10.4115 18.254 10.4454C18.2024 10.5017 18.1411 10.6606 18.1411 11.0995V12.4467H20.7478C20.944 12.4467 21.1341 12.4932 21.2975 12.5808C21.65 12.77 21.8691 13.1276 21.8691 13.5142L21.8677 16.9193C21.8677 17.5074 21.3693 17.9861 20.7567 17.9861H18.1411V25.9328C18.1411 26.5213 17.6426 27 17.0299 27ZM13.5937 25.7103H16.7982V17.4089C16.7982 17.016 17.1311 16.6964 17.54 16.6964H20.525L20.5262 13.7366H17.5398C17.1309 13.7366 16.7982 13.417 16.7982 13.0241V11.0995C16.7982 10.5957 16.8515 10.0226 17.2475 9.59195C17.7259 9.07129 18.4799 9.0112 19.0056 9.0112L20.6573 9.01053V6.29376L18.0925 6.28973C15.3179 6.28973 13.5937 7.99573 13.5937 10.7417V13.0241C13.5937 13.4168 13.261 13.7366 12.8521 13.7366H10.3427V16.6964H12.8521C13.261 16.6964 13.5937 17.016 13.5937 17.4089V25.7103Z" fill="white"/>
</svg>
