<svg width="32" height="32" viewBox="0 0 32 32" fill="none" xmlns="http://www.w3.org/2000/svg">
<path d="M21.7741 5H11.2259C7.79288 5 5 7.79288 5 11.2259V21.7743C5 25.2071 7.79288 28 11.2259 28H21.7743C25.2071 28 28 25.2071 28 21.7743V11.2259C28 7.79288 25.2071 5 21.7741 5ZM26.6516 21.7743C26.6516 24.4636 24.4636 26.6516 21.7741 26.6516H11.2259C8.53637 26.6516 6.34836 24.4636 6.34836 21.7743V11.2259C6.34836 8.53637 8.53637 6.34836 11.2259 6.34836H21.7743C24.4636 6.34836 26.6516 8.53637 26.6516 11.2259V21.7743Z" fill="white"/>
<path d="M16.5 10.2111C13.0322 10.2111 10.2111 13.0322 10.2111 16.5C10.2111 19.9678 13.0322 22.7889 16.5 22.7889C19.9678 22.7889 22.7889 19.9678 22.7889 16.5C22.7889 13.0322 19.9678 10.2111 16.5 10.2111ZM16.5 21.4405C13.7759 21.4405 11.5595 19.2243 11.5595 16.5C11.5595 13.7759 13.7759 11.5595 16.5 11.5595C19.2243 11.5595 21.4405 13.7759 21.4405 16.5C21.4405 19.2243 19.2243 21.4405 16.5 21.4405Z" fill="white"/>
<path d="M22.9393 7.97765C21.9145 7.97765 21.081 8.81134 21.081 9.83594C21.081 10.8607 21.9145 11.6944 22.9393 11.6944C23.964 11.6944 24.7977 10.8607 24.7977 9.83594C24.7977 8.81116 23.964 7.97765 22.9393 7.97765ZM22.9393 10.3459C22.6582 10.3459 22.4293 10.1171 22.4293 9.83594C22.4293 9.55466 22.6582 9.32601 22.9393 9.32601C23.2206 9.32601 23.4494 9.55466 23.4494 9.83594C23.4494 10.1171 23.2206 10.3459 22.9393 10.3459Z" fill="white"/>
</svg>
