<svg width="54" height="53" viewBox="0 0 54 53" fill="none" xmlns="http://www.w3.org/2000/svg">
<path fill-rule="evenodd" clip-rule="evenodd" d="M32.4227 9.1609C32.6129 8.93284 32.5821 8.59392 32.3538 8.40388C32.1254 8.21386 31.7859 8.24466 31.5956 8.47271L30.6984 9.5477C30.5082 9.77573 30.5391 10.1147 30.7675 10.3047C30.9957 10.4947 31.3352 10.4639 31.5256 10.2359L32.4227 9.1609ZM36.5887 14.2965C36.8447 14.1458 36.9301 13.8164 36.7792 13.5606C36.6283 13.3048 36.2984 13.2196 36.0421 13.3703L29.493 17.2223C29.237 17.3729 29.1516 17.7024 29.3025 17.9582C29.4534 18.2139 29.7834 18.2992 30.0396 18.1485L36.5887 14.2965ZM40.0324 20.7156C40.3211 20.6448 40.4977 20.3537 40.4266 20.0654C40.3558 19.7771 40.0642 19.6008 39.7755 19.6718L28.8304 22.3592C28.5417 22.43 28.3652 22.7211 28.4362 23.0094C28.5071 23.2977 28.7987 23.474 29.0874 23.403L40.0324 20.7156ZM23.8452 12.9376C24.1425 12.9376 24.3835 13.1782 24.3835 13.4751V26.1957C24.3835 26.4925 24.1425 26.7332 23.8452 26.7332C23.5479 26.7332 23.3069 26.4925 23.3069 26.1957V13.4751C23.3069 13.1782 23.5479 12.9376 23.8452 12.9376ZM16.3569 14.4768C16.6451 14.4041 16.9378 14.5785 17.0106 14.8663L19.1638 23.3765C19.2366 23.6644 19.0618 23.9567 18.7737 24.0294C18.4855 24.102 18.1927 23.9276 18.12 23.6399L15.9668 15.1296C15.894 14.8418 16.0686 14.5495 16.3569 14.4768ZM10.653 17.9194C10.4851 17.6744 10.1502 17.6117 9.90479 17.7793C9.65944 17.9469 9.59662 18.2815 9.76449 18.5264L10.9308 20.2284C11.0986 20.4734 11.4336 20.5362 11.679 20.3685C11.9243 20.2008 11.9871 19.8664 11.8193 19.6214L10.653 17.9194ZM12.0536 26.8639C12.1795 26.595 12.4998 26.4789 12.7692 26.6045L23.7142 31.7107C23.9835 31.8363 24.1 32.1563 23.974 32.4252C23.8483 32.6941 23.5278 32.8102 23.2585 32.6846L12.3135 27.5784C12.0441 27.4529 11.9278 27.1329 12.0536 26.8639ZM30.1171 32.5065C30.3426 32.6998 30.3685 33.0392 30.1747 33.2644L22.549 42.133C22.3554 42.3582 22.0156 42.384 21.79 42.1907C21.5645 41.9973 21.5387 41.658 21.7323 41.4328L29.3579 32.5642C29.5515 32.339 29.8914 32.3132 30.1171 32.5065ZM10.8404 34.2851C10.875 33.9904 11.1423 33.7793 11.4376 33.8137L19.8707 34.7991C20.166 34.8337 20.3774 35.1006 20.3428 35.3955C20.3082 35.6903 20.0408 35.9013 19.7456 35.8669L11.3125 34.8815C11.0172 34.8469 10.8059 34.58 10.8404 34.2851ZM14.1525 40.9138C14.1872 41.2087 13.976 41.4758 13.6808 41.5104L12.1557 41.6895C11.8604 41.7243 11.5929 41.5134 11.5582 41.2187C11.5234 40.9238 11.7346 40.6567 12.0299 40.6221L13.555 40.4429C13.8502 40.4082 14.1177 40.619 14.1525 40.9138ZM32.933 38.5415C33.0726 38.2793 32.9729 37.954 32.7104 37.8146C32.4479 37.6752 32.122 37.7748 31.9824 38.0369L28.2144 45.1139C28.0748 45.376 28.1746 45.7014 28.4371 45.8408C28.6996 45.9802 29.0255 45.8805 29.165 45.6184L32.933 38.5415ZM45.0844 26.0262C45.2276 25.766 45.5548 25.6713 45.8154 25.8142L47.6096 26.7996C47.8702 26.9428 47.9651 27.2696 47.8219 27.5297C47.6785 27.7899 47.3513 27.8846 47.0909 27.7417L45.2966 26.7563C45.0361 26.6131 44.941 26.2863 45.0844 26.0262ZM38.6142 26.903C38.8175 26.6864 39.1581 26.6755 39.375 26.8785L45.1167 32.2534C45.3336 32.4565 45.3446 32.7966 45.1413 33.0132C44.938 33.2298 44.5972 33.2407 44.3803 33.0377L38.6386 27.6628C38.4219 27.4597 38.4108 27.1196 38.6142 26.903ZM33.0726 27.5297C33.3256 27.374 33.6572 27.4527 33.8131 27.7053L40.0034 37.7385C40.1595 37.9913 40.0805 38.3223 39.8275 38.478C39.5744 38.6337 39.2428 38.5551 39.0868 38.3025L32.8966 28.2693C32.7407 28.0165 32.8194 27.6854 33.0726 27.5297ZM35.9901 44.5743C36.2795 44.6422 36.459 44.9315 36.3909 45.2205L36.0321 46.7434C35.9639 47.0324 35.6741 47.2115 35.3847 47.1435C35.0953 47.0756 34.9161 46.7862 34.9841 46.4972L35.3429 44.9743C35.4109 44.6853 35.7009 44.5062 35.9901 44.5743Z" fill="black"/>
<path fill-rule="evenodd" clip-rule="evenodd" d="M26.042 0.154541L26.487 0.353005C35.2025 4.23957 40.3337 10.4018 43.1649 16.0508L53.5572 18.1436L54 18.2329L53.9889 18.6838C53.7454 28.5034 48.5045 35.939 43.3242 40.6559L44.1189 51.1482L44.1525 51.5901L43.7245 51.7071C36.5049 53.6832 29.8909 52.3375 24.5737 49.8688C23.6046 49.4188 22.6777 48.9313 21.7971 48.419L12.5913 52.75L12.1416 52.9616L11.8947 52.5307C6.92575 43.859 6.55846 35.3349 7.73186 28.8589L0.18543 20.4575L0 20.318C2.81555 16.5852 10.1986 10.4446 20.9208 9.10347L25.8001 0.577106L26.042 0.154541ZM1.43904 20.2431L7.99675 27.5438C8.76247 24.0929 9.94205 21.3211 11.0034 19.5581L11.2663 19.1215L11.717 19.3603L27.3093 27.6182L30.5705 10.3339C15.8193 8.05809 5.39258 15.5852 1.43904 20.2431ZM46.1832 26.4366C46.0673 24.1917 45.3712 20.8786 43.742 17.2637L52.8978 19.1075C52.3389 32.6485 41.8691 41.4628 36.1992 44.4588L28.5708 28.8899L45.7049 26.9984L46.2094 26.9427L46.1832 26.4366ZM45.0731 25.9867L28.3647 27.831L31.7307 9.99105L31.8323 9.45316L31.2918 9.36163C28.0735 8.81643 25.0494 8.72422 22.2403 8.9646L26.4914 1.53578C40.2804 7.90234 44.5713 20.17 45.0731 25.9867ZM42.3119 41.5449C40.0565 43.4542 37.8759 44.8383 36.1952 45.6685L35.7106 45.9079L35.473 45.4229L27.5872 29.3283L14.2796 40.9449C16.3772 43.3768 20.148 46.6283 25.0277 48.894C30.0647 51.2328 36.2589 52.5108 43.0117 50.7836L42.3119 41.5449ZM11.6708 20.5527L26.816 28.5736L13.1739 40.4821L12.782 40.8243L13.1112 41.2267C14.6721 43.1355 17.2892 45.599 20.6936 47.7497L12.5852 51.5644C5.28356 38.4149 8.79262 25.7099 11.6708 20.5527Z" fill="black"/>
</svg>
