<svg xmlns="http://www.w3.org/2000/svg" xmlns:xlink="http://www.w3.org/1999/xlink"><defs><style>
    .sprite-symbol-usage {display: none;}
    .sprite-symbol-usage:target {display: inline;}
  </style><symbol viewBox="0 0 12 9" id="check"><path d="m4 8.3-4-4 1.1-1.1L4 6.1 10.1 0l1.1 1.1L4 8.3Z" /></symbol><symbol viewBox="0 0 16 16" id="clock"><path d="M8 .25A7.749 7.749 0 0 0 .25 8 7.749 7.749 0 0 0 8 15.75 7.749 7.749 0 0 0 15.75 8 7.749 7.749 0 0 0 8 .25ZM14.75 8A6.75 6.75 0 0 1 8 14.75 6.75 6.75 0 0 1 1.25 8 6.75 6.75 0 0 1 8 1.25 6.75 6.75 0 0 1 14.75 8Zm-4.653 2.76L7.559 8.915a.377.377 0 0 1-.153-.303V3.625c0-.206.169-.375.375-.375h.438c.206 0 .375.169.375.375v4.572L10.797 9.8a.375.375 0 0 1 .081.525l-.256.353a.378.378 0 0 1-.525.081Z" /></symbol></defs><use id="check-usage" xlink:href="#check" class="sprite-symbol-usage" /><use id="clock-usage" xlink:href="#clock" class="sprite-symbol-usage" /></svg>